<svg preserveAspectRatio="none" width="100%" height="100%" overflow="visible" style="display: block;" viewBox="0 0 20 20" fill="none" xmlns="http://www.w3.org/2000/svg">
<g id="app_svgrepo.com">
<path id="Vector" d="M16.7383 3.30775C15.8845 2.45396 14.6791 2.32004 13.2561 2.32004H6.72714C5.32089 2.32004 4.11554 2.45396 3.26175 3.30775C2.40793 4.16154 2.28239 5.35854 2.28239 6.75643V13.2185C2.28239 14.6498 2.40793 15.8385 3.26175 16.6923C4.11554 17.546 5.32089 17.68 6.75225 17.68H13.2561C14.6791 17.68 15.8845 17.546 16.7383 16.6923C17.5921 15.8385 17.7176 14.6498 17.7176 13.2185V6.78154C17.7176 5.35018 17.5921 4.15318 16.7383 3.30775ZM16.37 6.54714V13.4445C16.37 14.315 16.2612 15.2023 15.759 15.7129C15.2483 16.2151 14.3443 16.3323 13.4821 16.3323H6.51786C5.65571 16.3323 4.75171 16.2151 4.24946 15.7129C3.73886 15.2023 3.63004 14.315 3.63004 13.4445V6.57225C3.63004 5.69336 3.73886 4.78936 4.24111 4.28711C4.75171 3.7765 5.66407 3.66771 6.543 3.66771H13.4821C14.3443 3.66771 15.2483 3.78489 15.759 4.28711C16.2612 4.79771 16.37 5.685 16.37 6.54714Z" fill="var(--fill-0, #8A9AB8)"/>
</g>
</svg>
