<svg preserveAspectRatio="none" width="100%" height="100%" overflow="visible" style="display: block;" viewBox="0 0 22 22" fill="none" xmlns="http://www.w3.org/2000/svg">
<g id="Icon">
<path id="Vector" d="M5.5 10.0833H9.16667" stroke="var(--stroke-0, white)" stroke-width="1.83333" stroke-linecap="round" stroke-linejoin="round"/>
<path id="Vector_2" d="M7.33333 8.25V11.9167" stroke="var(--stroke-0, white)" stroke-width="1.83333" stroke-linecap="round" stroke-linejoin="round"/>
<path id="Vector_3" d="M13.75 11H13.76" stroke="var(--stroke-0, white)" stroke-width="1.83333" stroke-linecap="round" stroke-linejoin="round"/>
<path id="Vector_4" d="M16.5 9.16667H16.51" stroke="var(--stroke-0, white)" stroke-width="1.83333" stroke-linecap="round" stroke-linejoin="round"/>
<path id="Vector_5" d="M15.8767 4.58333H6.12333C5.21609 4.58354 4.34114 4.92009 3.66761 5.52792C2.99409 6.13576 2.56983 6.9717 2.47683 7.87417C2.47133 7.92183 2.46767 7.96675 2.46125 8.0135C2.387 8.63133 1.83333 13.2513 1.83333 14.6667C1.83333 15.396 2.12306 16.0955 2.63879 16.6112C3.15451 17.1269 3.85399 17.4167 4.58333 17.4167C5.5 17.4167 5.95833 16.9583 6.41667 16.5L7.71283 15.2038C8.05657 14.86 8.52281 14.6668 9.009 14.6667H12.991C13.4772 14.6668 13.9434 14.86 14.2872 15.2038L15.5833 16.5C16.0417 16.9583 16.5 17.4167 17.4167 17.4167C18.146 17.4167 18.8455 17.1269 19.3612 16.6112C19.8769 16.0955 20.1667 15.396 20.1667 14.6667C20.1667 13.2504 19.613 8.63133 19.5388 8.0135C19.5323 7.96767 19.5287 7.92183 19.5232 7.87508C19.4304 6.97245 19.0062 6.13628 18.3327 5.52826C17.6591 4.92025 16.7841 4.58357 15.8767 4.58333Z" stroke="var(--stroke-0, white)" stroke-width="1.83333" stroke-linecap="round" stroke-linejoin="round"/>
</g>
</svg>
