<svg preserveAspectRatio="none" width="100%" height="100%" overflow="visible" style="display: block;" viewBox="0 0 20 20" fill="none" xmlns="http://www.w3.org/2000/svg">
<g id="home-smile_svgrepo.com" clip-path="url(#clip0_39_5243)">
<path id="Vector" d="M1.66667 10.1699C1.66667 8.26291 1.66667 7.3094 2.09933 6.51895C2.532 5.72851 3.32246 5.23792 4.90336 4.25677L6.57002 3.22239C8.24116 2.18524 9.07675 1.66667 10 1.66667C10.9232 1.66667 11.7588 2.18524 13.43 3.22239L15.0967 4.25677C16.6776 5.23792 17.468 5.72851 17.9007 6.51895C18.3333 7.3094 18.3333 8.26291 18.3333 10.1699V11.4375C18.3333 14.6882 18.3333 16.3136 17.357 17.3234C16.3807 18.3333 14.8093 18.3333 11.6667 18.3333H8.33333C5.19063 18.3333 3.61929 18.3333 2.64297 17.3234C1.66667 16.3136 1.66667 14.6882 1.66667 11.4375V10.1699Z" stroke="var(--stroke-0, #00D4E8)" stroke-width="1.5"/>
<path id="Vector_2" d="M7.5 13.3333C8.20865 13.8586 9.0705 14.1667 10 14.1667C10.9295 14.1667 11.7913 13.8586 12.5 13.3333" stroke="var(--stroke-0, #00D4E8)" stroke-width="1.5" stroke-linecap="round"/>
</g>
<defs>
<clipPath id="clip0_39_5243">
<rect width="20" height="20" fill="white"/>
</clipPath>
</defs>
</svg>
